<?xml version="1.0" encoding="utf-8"?>
<!-- Generator: Adobe Illustrator 22.1.0, SVG Export Plug-In . SVG Version: 6.00 Build 0)  -->
<svg version="1.1" id="Layer_1" xmlns="http://www.w3.org/2000/svg" xmlns:xlink="http://www.w3.org/1999/xlink" x="0px" y="0px"
	 viewBox="0 0 201 55" style="enable-background:new 0 0 201 55;" xml:space="preserve">
<style type="text/css">
	.st0{fill:#FFFFFF;}
</style>
<g>
	<path class="st0" d="M144,0.5c0,0.5-0.1,0.9-0.1,1.3c0,0.8,0.2,1.6,0.3,2.3c0.3,1.2,0.8,2.4,1.2,3.6c1.2,3.4,2.3,6.8,3.5,10.1
		c0.5,1.6,0.9,3.2,1.1,4.9c0.4,3.4,0,6.6-1.3,9.6c-0.8,1.9-1.9,3.6-3.2,5.2c-2,2.3-4.2,4.2-6.7,5.9c-2.9,1.9-5.9,3.5-9.1,4.8
		c-2.6,1.1-5.3,2-8.1,2.8c-2.3,0.7-4.6,1.2-6.9,1.7c-1.2,0.3-2.5,0.5-3.8,0.7c-1.1,0.2-2.2,0.3-3.4,0.5c-0.8,0.1-1.5,0.2-2.3,0.3
		c-0.9,0.1-1.7,0.2-2.6,0.3c-0.6,0.1-1.2,0.1-1.8,0.1c-1.5,0.1-3.1,0.2-4.6,0.2c-1.4,0-2.7,0-4.1,0c-1.5,0-3-0.2-4.5-0.3
		c-1.6-0.2-3.3-0.4-4.9-0.7C79.8,53,76.8,52,74,50.5c-1.9-1-3.7-2.3-5.3-3.9c-2.4-2.5-4-5.6-4.7-9.3c-0.2-0.9-0.3-1.7-0.3-2.6
		c0-0.5,0.1-0.9,0.4-1.2c0.9-1.1,1.9-2,3-2.7c1.8-1.2,3.7-2.1,5.7-2.7c1.5-0.5,3-0.8,4.6-1c1.7-0.2,3.4-0.3,5.1-0.2
		c1,0,1.9,0.1,2.9,0.3c3.1,0.4,6.2,1.1,9.2,1.9c2.4,0.7,4.8,1.5,7.2,2.3c3.5,1.2,7,2.4,10.4,3.6c2.7,0.9,5.5,1.7,8.3,2.3
		c1.5,0.3,3,0.6,4.5,0.8c1.1,0.1,2.2,0.2,3.4,0.3c1.3,0.1,2.6,0.1,3.9,0c1.1,0,2.1-0.1,3.1-0.3c2.7-0.6,5-2.2,6.7-4.7
		c1.2-1.8,2-3.8,2.2-6c0.3-2.1,0.1-4.2-0.6-6.2c-0.4-1.2-0.8-2.5-1.3-3.7c0-0.1,0-0.2-0.1-0.2c-0.4,0.2-0.8,0.4-1.1,0.6
		c-1.9,1-3.8,2-5.8,3c-0.2,0.1-0.3,0.2-0.4,0.5c-0.1,0.4-0.3,0.8-0.4,1.3c-0.2,0.9,0.1,1.6,0.8,2c0.2,0.1,0.3,0.1,0.5,0.2
		c0.1,0,0.1,0,0.2,0.1c0,0.3,0,0.6,0,1c-2,0-3.9,0-5.9,0c0-0.3,0-0.7,0-1c0.1,0,0.2-0.1,0.3-0.1c0.8-0.2,1.3-0.7,1.6-1.5
		c0.5-1.1,0.9-2.2,1.3-3.3c1.7-4.6,3.3-9.3,5-13.9c0.2-0.4,0.1-0.7-0.1-1.1c-0.3-0.5-0.6-0.9-1-1.2c-0.2-0.1-0.3-0.2-0.5-0.4
		C139,1.4,141.3,0.4,144,0.5z M128.1,40.7c-0.2,0.1-0.2,0.1-0.3,0.3c-1.1,1.5-2.3,2.7-3.7,3.8c-2,1.5-4.1,2.5-6.4,3.1
		c-1.3,0.4-2.5,0.6-3.8,0.8c-1.1,0.1-2.2,0.2-3.3,0.3c-1.4,0-2.8,0-4.2,0c-1.6,0-3.2-0.3-4.7-0.9c-2-0.7-3.8-1.9-5.5-3.2
		c-1.9-1.5-3.7-3.2-5.3-5c-1.5-1.7-3.3-3-5.2-4c-2.2-1.2-4.5-1.9-6.9-2.3c-1.6-0.3-3.3-0.3-4.9-0.3c-1.2,0-2.4,0.2-3.7,0.5
		c-1,0.2-1.9,0.5-2.8,0.9c-0.2,0.1-0.2,0.1-0.2,0.4c0,0.4,0,0.8,0.1,1.2c0.3,1.4,0.8,2.8,1.4,4.1c1.1,2.1,2.5,3.8,4.2,5.3
		c1.6,1.4,3.4,2.4,5.2,3.3c2.9,1.4,5.8,2.3,8.9,2.9c1.1,0.2,2.2,0.4,3.4,0.6c1.2,0.2,2.3,0.4,3.5,0.5c1.2,0.1,2.4,0.2,3.6,0.1
		c1.5,0,2.9,0,4.4-0.1c1.4-0.1,2.8-0.1,4.2-0.3c1.1-0.1,2.3-0.2,3.4-0.4c1.6-0.3,3.2-0.6,4.7-1c2.2-0.6,4.3-1.4,6.3-2.6
		c2.1-1.2,4-2.8,5.7-4.8c0.7-0.9,1.4-1.8,2-2.8C128,41,128.1,40.9,128.1,40.7z M139.6,8.6c-0.3,0.5-2.6,6.8-2.6,7.3
		c1.4-0.8,2.9-1.5,4.3-2.3C140.8,11.9,140.2,10.3,139.6,8.6z"/>
	<path class="st0" d="M95.9,24.9c0,0.3,0,0.7,0,1c-3,0-6,0-9,0c0-0.3,0-0.7,0-1c0.1-0.1,0.2-0.1,0.2-0.1c0.7,0,1.4-0.6,1.5-1.6
		c0-0.2,0.1-0.4,0.1-0.7c0-4.4,0-8.9,0-13.3c0-0.5,0-1,0-1.5c-0.1-0.4-0.1-0.8-0.3-1.2c-0.3-0.8-0.8-1.3-1.5-1.4
		c-0.4-0.1-0.9-0.1-1.4-0.1c-0.2,0-0.4,0-0.6,0c0.1-0.2,0.2-0.3,0.4-0.4C86,4,86.7,3.3,87.6,2.7c1.5-1.1,3.2-1.9,5-2.3
		c0.9-0.2,1.9-0.3,2.9-0.3c2,0,3.9,0.4,5.7,1.2c1.3,0.6,2.4,1.4,3.3,2.6c0.8,1,1.3,2.2,1.4,3.5c0.2,1.6-0.3,2.9-1.2,4.1
		c-0.6,0.8-1.5,1.4-2.3,1.7c-0.9,0.4-1.8,0.6-2.8,0.6c-0.1,0-0.2,0-0.4,0.1c0.2,0.1,0.3,0.1,0.5,0.2c1.1,0.4,2.1,1.1,2.9,2.1
		c0.3,0.4,0.6,0.9,0.8,1.4c0.3,0.8,0.7,1.6,1,2.4c0.2,0.4,0.4,0.7,0.6,1c0.4,0.6,1.2,0.8,1.8,0.4c0.2-0.1,0.3-0.2,0.5-0.3
		c0,0.2,0,0.4,0,0.6c-0.1,1.1-0.4,2.2-1,3.2c-0.6,0.9-1.3,1.6-2.3,1.8c-1.7,0.3-3.4-0.5-4.2-2.4c-0.3-0.8-0.5-1.7-0.7-2.6
		c-0.3-1.4-0.5-2.7-0.8-4.1c-0.2-0.7-0.4-1.4-0.7-2c-0.4-0.8-1-1.4-1.8-1.8c-0.1,0-0.2-0.1-0.3-0.2c0,0,0,0,0-0.1
		c0.1-0.2,0.2-0.5,0.3-0.7c0.2,0,0.3,0,0.4,0.1c1.2,0.2,2.1-0.3,2.8-1.4c0.5-0.8,0.7-1.6,0.8-2.6c0.1-1.2-0.2-2.3-0.6-3.4
		c-0.6-1.4-1.6-2.3-2.9-2.8c-0.8-0.3-1.7-0.5-2.6-0.5c-1.5-0.1-2.9,0.2-4.3,0.9c-0.3,0.1-0.6,0.3-0.8,0.4c-0.1,0-0.2,0-0.2,0.2
		c0.3,0,0.6-0.1,0.9-0.2C89.8,3.3,90.4,3.1,91,3c0.5,0,1,0,1.5,0c0.7,0,1.5,0.1,2.2,0.3c0.1,0,0.1,0,0.2,0.1c0,0.2-0.1,0.3-0.2,0.4
		c-0.4,0.9-0.6,1.9-0.6,2.9c0,2.7,0,5.3,0,8c0,2.4,0,4.8,0,7.1c0,0.6,0,1.1,0.1,1.7c0.1,0.7,0.5,1.1,1,1.2
		C95.5,24.8,95.7,24.9,95.9,24.9z"/>
	<path class="st0" d="M157.3,16.7c0,0.4-0.1,0.7-0.1,1.1c0,2.2,0.5,4.2,2,5.7c0.8,0.9,1.8,1.3,2.9,1.4c1.3,0.1,2.4-0.3,3.4-1.3
		c0.9-0.9,1.4-2,1.5-3.3c0.1-0.6,0-1.3-0.1-1.9c-0.2-1-0.7-1.7-1.5-2.3c-0.8-0.6-1.6-1-2.5-1.2c-1.2-0.3-2.5-0.6-3.7-0.9
		c-0.7-0.2-1.3-0.4-1.9-0.7c-1.3-0.7-2.4-1.8-3-3.3c-0.9-2.2-0.6-4.3,0.7-6.3c0.6-0.9,1.4-1.5,2.2-2c1-0.6,2.1-0.9,3.3-1.1
		c1.6-0.2,3.3-0.1,4.9,0.3c1.1,0.3,2.3,0.5,3.4,0.8c1.1,0.2,2.2,0,3.2-0.8c0.2-0.1,0.4-0.3,0.6-0.5c0.1,0.2,0,0.4,0,0.6
		c-0.1,1-0.2,2.1-0.6,3c-0.2,0.6-0.5,1.2-0.9,1.7c-0.6,0.7-1.4,1-2.3,0.8c-0.3-0.1-0.6-0.3-0.8-0.5c-0.3-0.3-0.6-0.7-0.8-1
		c-0.4-0.5-0.7-1-1.2-1.5c-0.9-1.1-2.1-1.4-3.4-1.3c-0.5,0.1-1,0.2-1.4,0.4c-0.8,0.4-1.3,1.1-1.5,2c-0.1,0.6,0,1.3,0.2,1.9
		c0.4,1,1.1,1.6,2,1.9c1.1,0.4,2.2,0.7,3.2,1c1.1,0.3,2.2,0.6,3.2,1.1c1.6,0.7,3,1.9,3.8,3.6c0.6,1.2,0.9,2.6,0.9,4
		c0,1.2-0.2,2.4-0.6,3.5c-0.6,1.5-1.5,2.6-2.7,3.4c-1.1,0.8-2.4,1.3-3.7,1.6c-1,0.2-2,0.3-3,0.3c-1.4,0-2.9-0.2-4.3-0.5
		c-1-0.2-1.9-0.5-2.9-0.7c-0.5-0.1-1-0.1-1.5,0c-0.5,0.1-1,0.4-1.4,0.8c-0.1,0.1-0.3,0.3-0.5,0.4c0-0.1,0-0.3,0-0.4
		c0-1.8,0.4-3.6,1.1-5.2c0.8-1.8,1.9-3.2,3.4-4.3C157.1,16.8,157.2,16.7,157.3,16.7z"/>
	<path class="st0" d="M73.6,9.7c0,0.1,0,0.1,0,0.1c-0.3,1-0.7,1.9-1.6,2.3c-1.2,0.6-2.3,0.5-3.4-0.4c-0.7-0.6-1.2-1.4-1.4-2.4
		c-0.3-1.3-0.3-2.6,0.1-3.8C67.8,3.4,69.1,1.9,71,1c1.1-0.5,2.3-0.8,3.5-0.7c1.7,0.1,3.1,0.7,4.5,1.8c1.9,1.5,3.2,3.6,4.1,6
		c0.7,2,1,4,0.9,6.1c-0.2,3.2-1.2,6.1-3.1,8.5c-1.6,2-3.6,3.3-6,3.8c-2,0.4-3.9,0.3-5.7-0.6c-2.2-1-3.7-2.8-4.7-5.2
		c-0.7-1.7-1-3.5-1.1-5.4c0-1.6,0.1-3.1,0.6-4.7c0.5-1.9,1.4-3.5,2.7-4.9c0.1-0.1,0.2-0.1,0.2-0.2c0,0,0,0,0.1,0
		c0,0.3-0.1,0.6-0.2,0.9c-0.2,1.2-0.3,2.5-0.2,3.7c0.1,1.6,0.4,3.1,0.9,4.6c0.4,1.1,0.8,2.1,1.5,3c1.2,1.6,2.6,2.5,4.4,2.8
		c2.3,0.4,4.3-0.4,6-2.1c1.2-1.2,2-2.8,2.3-4.6c0.4-2.4,0.1-4.6-1.2-6.5c-0.9-1.3-2-2.2-3.5-2.5C75.4,4.6,74.1,5,73,6
		c-0.5,0.4-0.9,1-1,1.7C71.8,8.2,71.8,8.6,72,9c0.2,0.4,0.5,0.7,1,0.7C73.2,9.7,73.4,9.7,73.6,9.7z"/>
	<path class="st0" d="M129.1,18.7c0,0.3-0.1,0.5-0.2,0.8c-0.4,1.5-1,2.8-1.9,3.9c-0.7,0.8-1.4,1.4-2.3,1.9c-1.3,0.8-2.6,1.2-4,1.4
		c-2.1,0.3-4.1,0-6-1.1c-2-1.1-3.5-2.8-4.6-5c-0.7-1.5-1.2-3.1-1.3-4.8c-0.4-4.4,0.7-8.2,3.3-11.4c1.4-1.7,3.1-3,5.2-3.6
		c1.7-0.5,3.4-0.5,5.1,0c0.9,0.3,1.8,0.6,2.6,1c0.4,0.2,0.9,0.2,1.3,0.2c0.5,0,0.8-0.3,1.2-0.6c0.2-0.2,0.4-0.4,0.6-0.7
		c0.1,0.4,0.2,0.7,0.2,1c0,0.6,0,1.3,0,1.9c-0.1,1.2-0.4,2.3-1.1,3.2c-0.9,1.2-2.3,1.2-3.3,0.4c-0.4-0.3-0.7-0.7-1-1.2
		c-0.3-0.6-0.7-1.2-1-1.7c-0.2-0.4-0.6-0.8-0.9-1.1c-0.4-0.3-0.8-0.5-1.3-0.6c-1.2-0.1-2.3,0.3-3.2,1.2c-1,0.9-1.7,2.2-2.2,3.6
		c-0.5,1.4-0.7,2.8-0.7,4.2c0.1,2.3,0.6,4.4,1.9,6.2c1.4,1.9,3.1,3.1,5.3,3.5c1,0.2,1.9,0.2,2.9,0.1c1.7-0.2,3.2-0.9,4.6-2
		C128.6,19.2,128.8,19,129.1,18.7z"/>
</g>
</svg>
